HIERARCHY
ROOT Hips
{
	OFFSET 0.000000 0.000000 0.000000
	CHANNELS 6 Xposition Yposition Zposition Xrotation Yrotation Zrotation
	JOINT LeftUpLeg_virtual
	{
		OFFSET 0.000000 0.000000 0.000000
		CHANNELS 3 Xrotation Yrotation Zrotation
		JOINT LeftUpLeg
		{
			OFFSET 10.205400 -3.823500 0.155100
			CHANNELS 3 Xrotation Yrotation Zrotation
			JOINT LeftLeg
			{
				OFFSET 0.708757 -12.982077 0.567790
				CHANNELS 3 Xrotation Yrotation Zrotation
				JOINT LeftFoot
				{
					OFFSET -0.708756 -10.717838 -2.184338
					CHANNELS 3 Xrotation Yrotation Zrotation
					JOINT LeftToeBase
					{
						OFFSET 0.108149 -7.191104 7.560241
						CHANNELS 3 Xrotation Yrotation Zrotation
						JOINT LeftToe_End
						{
							OFFSET 0.070230 0.081724 4.490308
							CHANNELS 3 Xrotation Yrotation Zrotation
							End Site
							{
								OFFSET 0 0 0
							}
						}
					}
				}
			}
		}
	}
	JOINT RightUpLeg_virtual
	{
		OFFSET 0.000000 0.000000 0.000000
		CHANNELS 3 Xrotation Yrotation Zrotation
		JOINT RightUpLeg
		{
			OFFSET -10.205400 -3.823500 0.005500
			CHANNELS 3 Xrotation Yrotation Zrotation
			JOINT RightLeg
			{
				OFFSET -0.708756 -12.982134 0.610632
				CHANNELS 3 Xrotation Yrotation Zrotation
				JOINT RightFoot
				{
					OFFSET 0.708754 -10.717769 -1.945823
					CHANNELS 3 Xrotation Yrotation Zrotation
					JOINT RightToeBase
					{
						OFFSET -0.108140 -7.191069 7.372968
						CHANNELS 3 Xrotation Yrotation Zrotation
						JOINT RightToe_End
						{
							OFFSET -0.070227 0.081735 4.479403
							CHANNELS 3 Xrotation Yrotation Zrotation
							End Site
							{
								OFFSET 0 0 0
							}
						}
					}
				}
			}
		}
	}
	JOINT Spine_virtual
	{
		OFFSET 0.000000 0.000000 0.000000
		CHANNELS 3 Xrotation Yrotation Zrotation
		JOINT Spine
		{
			OFFSET 0.000000 6.876099 0.125700
			CHANNELS 3 Xrotation Yrotation Zrotation
			JOINT Spine1
			{
				OFFSET 0.000000 5.730043 0.104720
				CHANNELS 3 Xrotation Yrotation Zrotation
				JOINT Spine1_split
				{
					OFFSET 0.000000 5.730043 0.104720
					CHANNELS 3 Xrotation Yrotation Zrotation
					JOINT Spine2
					{
						OFFSET 0.000000 5.730043 0.104720
						CHANNELS 3 Xrotation Yrotation Zrotation
						JOINT Neck_virtual
						{
							OFFSET 0.000000 0.000000 0.000000
							CHANNELS 3 Xrotation Yrotation Zrotation
							JOINT Neck
							{
								OFFSET 0.000000 10.314075 0.188496
								CHANNELS 3 Xrotation Yrotation Zrotation
								JOINT Head
								{
									OFFSET 0.000000 7.643700 -2.377400
									CHANNELS 3 Xrotation Yrotation Zrotation
									JOINT HeadTop_End
									{
										OFFSET 0.000000 43.788605 -13.619600
										CHANNELS 3 Xrotation Yrotation Zrotation
										End Site
										{
											OFFSET 0 0 0
										}
									}
								}
							}
						}
						JOINT LeftShoulder_virtual
						{
							OFFSET 0.000000 0.000000 0.000000
							CHANNELS 3 Xrotation Yrotation Zrotation
							JOINT LeftShoulder
							{
								OFFSET 2.196100 4.412489 0.087492
								CHANNELS 3 Xrotation Yrotation Zrotation
								JOINT LeftShoulder_split
								{
									OFFSET 2.196100 4.412489 0.087492
									CHANNELS 3 Xrotation Yrotation Zrotation
									JOINT LeftArm
									{
										OFFSET 8.771219 -2.981674 -0.026999
										CHANNELS 3 Xrotation Yrotation Zrotation
										JOINT LeftForeArm
										{
											OFFSET 8.512804 0.000000 -0.000000
											CHANNELS 3 Xrotation Yrotation Zrotation
											JOINT LeftHand
											{
												OFFSET 18.484802 0.000000 -0.000000
												CHANNELS 3 Xrotation Yrotation Zrotation
												End Site
												{
													OFFSET 0 0 0
												}
											}
										}
									}
								}
							}
						}
						JOINT RightShoulder_virtual
						{
							OFFSET 0.000000 0.000000 0.000000
							CHANNELS 3 Xrotation Yrotation Zrotation
							JOINT RightShoulder
							{
								OFFSET -2.196100 4.412496 0.070690
								CHANNELS 3 Xrotation Yrotation Zrotation
								JOINT RightShoulder_split
								{
									OFFSET -2.196100 4.412496 0.070690
									CHANNELS 3 Xrotation Yrotation Zrotation
									JOINT RightArm
									{
										OFFSET -8.771282 -2.981682 -0.094208
										CHANNELS 3 Xrotation Yrotation Zrotation
										JOINT RightForeArm
										{
											OFFSET -8.494598 0.000000 0.000000
											CHANNELS 3 Xrotation Yrotation Zrotation
											JOINT RightHand
											{
												OFFSET -18.483803 0.000000 0.000001
												CHANNELS 3 Xrotation Yrotation Zrotation
												End Site
												{
													OFFSET 0 0 0
												}
											}
										}
									}
								}
							}
						}
					}
				}
			}
		}
	}
}
MOTION
Frames: 11
Frame Time: 0.03333333
-0.607305 28.818964 1.722349 0.000000 0.000000 0.000000 9.651357 -46.550160 11.894913 -61.849631 26.172236 33.624328 52.059719 -18.091006 7.415839 2.518090 -1.776891 -20.365689 -0.681314 -2.506928 17.183906 0.000000 0.000000 0.000000 10.862175 -46.229872 13.206674 -22.533083 1.701488 -20.895965 42.000466 7.453517 -7.970662 -34.521753 1.718012 28.143687 12.101554 7.226992 0.469694 0.000000 0.000000 0.000000 8.779732 -53.928691 11.997314 11.135645 4.135465 -3.413186 4.974158 8.734682 -4.274849 0.002244 -1.935846 -0.391637 0.000000 0.000000 0.000000 -2.022875 7.744467 -2.281316 -1.135514 13.616197 0.800660 -1.703905 15.821015 -2.430657 0.000000 0.000000 0.000000 -4.640041 7.475499 -2.900520 0.837887 -15.461211 -0.843342 7.211275 -0.434491 0.839861 -10.091645 1.355326 -43.009124 -24.639496 -36.511548 -16.785617 0.000000 0.000000 0.000000 -4.855497 7.123190 -2.171518 -2.839646 16.374004 1.438221 -2.016999 -0.483066 -2.011315 11.010169 -29.444300 60.105774 -26.199870 45.882318 27.693535 0.000000 0.000000 0.000000 
-0.513891 28.535191 1.412720 0.000000 0.000000 0.000000 8.552229 -48.098216 11.768853 -60.907481 24.205115 34.146175 55.554576 -18.620788 8.317074 1.221726 -1.709982 -23.353221 -1.142572 -2.493106 17.514335 0.000000 0.000000 0.000000 9.913658 -46.325922 12.664678 -22.117580 1.667539 -21.872610 42.072186 6.377030 -7.354678 -33.832751 0.568858 25.048358 16.321598 7.425625 0.631710 0.000000 0.000000 0.000000 7.064159 -54.227816 11.159930 12.100026 3.800024 -3.766152 5.142926 8.744684 -4.249746 -0.551813 -2.223346 0.013789 0.000000 0.000000 0.000000 -2.126180 7.657165 -2.193470 -0.685186 13.322289 0.953920 -1.019710 16.581865 -3.258112 0.000000 0.000000 0.000000 -4.865348 7.479511 -2.845065 0.492155 -13.902213 -1.039193 7.574889 -1.351089 1.243782 -9.270775 1.813025 -42.259111 -24.494279 -36.814522 -16.759358 0.000000 0.000000 0.000000 -4.982665 7.117569 -2.074976 -2.798702 17.587250 0.766128 -0.843806 1.573270 -3.217318 10.401293 -29.277661 60.740019 -26.709858 46.450057 27.778075 0.000000 0.000000 0.000000 
-0.603426 28.131165 1.175137 0.000000 0.000000 0.000000 7.832836 -51.734988 11.562272 -59.904188 19.981693 35.283524 61.978475 -17.712933 9.526403 -1.798788 1.276936 -23.597699 -1.238520 -1.770234 15.801964 0.000000 0.000000 0.000000 8.376171 -48.228577 11.550250 -22.872292 2.888923 -23.885884 44.220011 6.686956 -6.857595 -32.765094 -1.442782 25.049451 15.958915 7.711664 0.139788 0.000000 0.000000 0.000000 5.171631 -54.909182 9.528756 13.146180 3.313841 -3.940359 5.338322 8.688934 -4.275501 -0.879140 -3.087543 0.501627 0.000000 0.000000 0.000000 -2.013744 7.530186 -2.208853 -0.053994 12.571828 0.985703 -0.419484 17.361269 -4.484940 0.000000 0.000000 0.000000 -4.846858 7.442707 -2.831688 0.183524 -11.580952 -1.040256 8.003226 -2.643021 1.377275 -8.042728 2.590594 -41.009897 -24.454575 -37.118595 -17.155475 0.000000 0.000000 0.000000 -5.033434 7.032623 -2.052106 -2.879346 19.190933 0.185733 -0.012438 3.160787 -3.613754 9.305023 -27.602201 60.039309 -26.147002 46.748735 26.362179 0.000000 0.000000 0.000000 
-0.835041 27.696812 1.034883 0.000000 0.000000 0.000000 7.127943 -56.572783 10.762305 -58.493993 15.215121 36.243928 68.728690 -15.148781 9.889599 -7.341297 6.218375 -19.310010 -1.115109 -0.629717 12.742197 0.000000 0.000000 0.000000 6.674390 -51.323455 9.918057 -24.174814 5.379563 -25.911112 47.475115 7.853188 -6.638953 -31.650902 -3.777101 27.398278 11.330223 7.877759 -0.345496 0.000000 0.000000 0.000000 4.005972 -56.295690 7.639591 14.058836 2.852574 -3.820391 5.588030 8.618478 -4.307815 -0.303507 -3.583219 1.378784 0.000000 0.000000 0.000000 -1.709820 7.474356 -2.257098 0.491295 11.376960 0.897457 -0.182526 18.208743 -5.990035 0.000000 0.000000 0.000000 -4.557819 7.432462 -2.808267 -0.071493 -8.910383 -0.920835 8.306470 -3.993350 1.091872 -6.124876 3.706763 -39.376078 -24.470425 -37.413259 -17.849834 0.000000 0.000000 0.000000 -4.909292 6.972894 -2.055813 -2.978328 21.126315 -0.135877 0.191544 3.716544 -3.052513 7.403037 -24.996355 58.319475 -24.639556 46.167161 23.690923 0.000000 0.000000 0.000000 
-1.043746 27.332886 1.065971 0.000000 0.000000 0.000000 6.359522 -61.655189 9.032823 -56.634662 11.141213 36.163628 74.858539 -11.706349 8.777205 -15.469742 10.480116 -11.140094 -0.418972 0.614925 9.245329 0.000000 0.000000 0.000000 5.815609 -55.707347 8.195816 -25.182493 8.455555 -26.519659 49.980275 8.676031 -6.481000 -31.573106 -6.020148 29.179709 6.488951 7.780988 -0.571601 0.000000 0.000000 0.000000 3.756661 -59.085159 5.774473 14.627000 2.593090 -3.273404 5.891244 8.609999 -4.259706 0.733034 -4.011885 2.191460 0.000000 0.000000 0.000000 -1.258494 7.551175 -2.240728 0.861696 9.912883 0.576163 -0.370414 19.206519 -7.496711 0.000000 0.000000 0.000000 -4.009995 7.524058 -2.690730 -0.253766 -6.137755 -0.867747 8.602574 -4.696188 0.804438 -3.101419 5.116513 -37.859995 -24.320815 -37.895860 -18.596057 0.000000 0.000000 0.000000 -4.603635 7.041709 -2.022415 -3.023211 23.403700 -0.173077 0.279458 3.289092 -1.443725 4.401295 -21.759161 55.749343 -22.612417 44.215885 20.311738 0.000000 0.000000 0.000000 
-1.076216 27.055185 1.262438 0.000000 0.000000 0.000000 5.937302 -66.658056 6.784416 -55.961297 7.603064 34.480933 81.111208 -9.477400 6.990904 -20.745448 11.186410 -5.339468 -0.047585 1.816863 6.557161 0.000000 0.000000 0.000000 6.891937 -61.153026 7.304123 -26.012649 11.657573 -25.052717 50.531355 8.636621 -6.153578 -33.184105 -7.415658 28.501661 4.314545 7.238118 -0.474023 0.000000 0.000000 0.000000 4.884548 -63.533621 4.564976 14.660998 2.582632 -2.278005 6.259511 8.700278 -3.998051 0.922916 -4.123785 2.499385 0.000000 0.000000 0.000000 -0.687268 7.752881 -2.051702 1.115603 8.178039 -0.057646 -0.731498 20.028567 -8.665610 0.000000 0.000000 0.000000 -3.304441 7.704586 -2.380140 -0.359155 -3.406886 -0.957188 8.715093 -4.562398 0.587395 1.501296 6.253619 -37.200485 -23.804324 -39.112542 -19.152545 0.000000 0.000000 0.000000 -4.138086 7.195671 -1.864671 -3.001556 26.004839 0.147664 0.402128 2.048052 0.494265 0.413132 -17.804771 52.735552 -20.230148 40.265785 16.663454 0.000000 0.000000 0.000000 
-0.942514 26.916260 1.642473 0.000000 0.000000 0.000000 6.726188 -71.297483 5.072913 -57.070349 4.606830 31.083836 87.381185 -9.428565 5.560970 -18.863651 8.175069 -5.464350 -1.015444 2.823562 5.253421 0.000000 0.000000 0.000000 10.751227 -67.488273 8.397555 -27.490152 14.451705 -21.781262 49.380403 8.144394 -5.536172 -34.339165 -7.062967 26.389942 4.122799 6.390801 -0.537040 0.000000 0.000000 0.000000 8.677211 -69.564766 5.621709 14.208686 2.755994 -0.940414 6.640786 8.847168 -3.448533 0.368322 -3.816071 2.660310 0.000000 0.000000 0.000000 -0.066008 7.998141 -1.611755 1.206264 6.231757 -0.839906 -1.208460 19.902533 -8.988994 0.000000 0.000000 0.000000 -2.574481 7.920958 -1.810657 -0.420432 -0.997386 -1.293935 8.586348 -3.827300 0.529033 7.908187 6.285510 -38.047654 -22.590596 -41.462978 -19.110092 0.000000 0.000000 0.000000 -3.560607 7.339181 -1.511357 -2.947419 29.008824 0.810184 0.594539 0.592170 1.832246 -3.734414 -12.670879 49.651319 -17.720741 34.627044 13.162615 0.000000 0.000000 0.000000 
-0.715222 26.921871 2.043825 0.000000 0.000000 0.000000 11.757284 -76.439960 7.361125 -58.678155 2.378622 25.277769 91.958334 -10.838193 5.042378 -12.472708 2.027470 -9.949256 -5.403823 3.379162 6.437736 0.000000 0.000000 0.000000 20.086396 -74.851633 14.978762 -30.490600 16.339320 -17.516471 47.211869 8.179759 -4.639636 -31.728667 -4.601376 25.707739 3.583748 5.311241 -1.260127 0.000000 0.000000 0.000000 18.860055 -76.777310 13.089848 13.422333 2.925815 0.599717 6.936383 8.934225 -2.556218 -0.450428 -3.521601 2.158127 0.000000 0.000000 0.000000 0.473265 8.148406 -0.827161 1.076824 3.975801 -1.647302 -1.896241 18.169813 -8.034361 0.000000 0.000000 0.000000 -1.951784 8.074530 -0.961087 -0.443774 0.962376 -1.766730 8.402797 -2.901999 0.832983 15.909956 4.158095 -40.609228 -20.524042 -45.202301 -18.136949 0.000000 0.000000 0.000000 -2.940507 7.355083 -0.932728 -2.911910 32.321162 1.931094 0.567200 -1.304984 2.520911 -7.015297 -5.514255 46.751610 -15.319413 28.869044 10.202585 0.000000 0.000000 0.000000 
-0.485044 27.082880 2.355009 0.000000 0.000000 0.000000 31.393189 -82.296731 24.600603 -58.765944 0.681907 16.700929 93.042196 -12.122847 5.101797 -8.316176 -5.194291 -13.874220 -12.910544 3.302601 9.358829 0.000000 0.000000 0.000000 48.871882 -81.896973 41.736462 -35.571885 17.207864 -13.346494 44.450400 9.980826 -3.891430 -24.766444 0.012426 28.341238 0.946827 3.825904 -2.550883 0.000000 0.000000 0.000000 55.599970 -82.860426 47.205155 12.410652 2.921584 2.098233 7.160831 8.825485 -1.370858 -1.149113 -3.185716 1.363394 0.000000 0.000000 0.000000 0.832402 8.035217 0.323200 0.714697 1.216149 -2.095159 -2.913250 14.373675 -5.716684 0.000000 0.000000 0.000000 -1.520300 8.022262 0.096457 -0.431692 2.082364 -2.183266 8.126529 -2.342178 1.304038 24.148100 -0.363017 -44.332436 -17.256531 -49.775693 -15.806461 0.000000 0.000000 0.000000 -2.307546 7.159400 -0.093768 -3.045400 35.686618 3.549666 -0.116236 -3.472853 2.645683 -8.628849 4.002724 43.858940 -13.014261 24.777701 7.782926 0.000000 0.000000 0.000000 
-0.371366 27.431292 2.885786 0.000000 0.000000 0.000000 100.207372 -84.386017 91.902839 -56.321764 -0.900396 6.847192 90.449839 -11.892750 4.532128 -11.237448 -9.497959 -13.582122 -17.592267 3.444629 10.794072 0.000000 0.000000 0.000000 123.254261 -81.807723 115.110121 -41.893317 17.132795 -10.084134 41.386141 12.959574 -3.369053 -16.296215 6.170923 32.019736 -3.210209 1.873280 -3.601428 0.000000 0.000000 0.000000 121.933316 -80.981865 111.380591 11.387046 2.670004 3.390223 7.384741 8.427522 0.020509 -1.202140 -2.145947 0.920203 0.000000 0.000000 0.000000 0.916751 7.604720 1.704550 0.340662 -2.203161 -1.800893 -4.359878 8.463678 -2.339406 0.000000 0.000000 0.000000 -1.263409 7.705160 1.256070 -0.363144 2.120765 -2.376167 7.824133 -1.962979 2.003497 31.536165 -6.702143 -48.247203 -12.579105 -54.488442 -11.866259 0.000000 0.000000 0.000000 -1.784538 6.795456 1.005969 -3.396150 38.700473 5.386896 -1.308069 -5.268837 2.372764 -8.327407 15.138882 40.205352 -10.863703 24.120613 5.771881 0.000000 0.000000 0.000000 
-0.424195 27.894985 3.602007 0.000000 0.000000 0.000000 142.061583 -78.350384 133.274189 -52.185142 -3.251962 -2.387915 85.161128 -9.997305 3.127832 -19.092477 -10.182547 -9.778124 -15.695898 4.723603 9.281699 0.000000 0.000000 0.000000 152.432829 -73.842241 144.399270 -47.064433 16.514462 -8.230211 38.443805 15.034730 -2.969576 -9.778762 11.545041 31.378903 -6.032776 -0.836503 -3.109802 0.000000 0.000000 0.000000 145.947359 -73.668084 133.885860 10.516277 2.150458 4.402039 7.574235 7.762605 1.549781 -0.978811 -0.860984 0.106690 0.000000 0.000000 0.000000 0.723977 6.902246 3.129012 0.345795 -6.299933 -0.624121 -6.019277 0.847745 1.362639 0.000000 0.000000 0.000000 -1.212971 7.134651 2.461820 -0.191446 1.091177 -1.918703 6.945633 -1.475268 2.403623 37.680101 -13.556390 -51.529088 -6.854662 -58.436722 -6.463957 0.000000 0.000000 0.000000 -1.434147 6.272480 2.301488 -3.805491 40.799370 7.029322 -2.530927 -6.886782 1.742570 -5.593637 26.193118 34.706206 -8.837782 28.025035 3.869037 0.000000 0.000000 0.000000 
